<svg width="926" height="40" viewBox="0 0 926 40" fill="none" xmlns="http://www.w3.org/2000/svg">
<path d="M920.286 28C911.438 28.0448 914.784 28.502 905.937 28.6186C904.325 28.6365 902.591 29.1477 901.161 29.7305C899.961 30.2148 899.226 30.2775 898.077 29.6498C895.638 28.3047 892.635 28.0088 889.955 28.8069C887.194 29.6229 885.078 29.7485 882.176 28.8517C879.757 28.1075 876.543 28.4034 873.731 28.5917C872.139 28.6993 870.688 29.8112 869.096 29.9368C867.635 30.0533 865.7 28.9145 864.602 29.2732C862.163 30.0802 860.45 30.0354 858.747 28.5737C856.681 26.7893 854.313 26.2154 851.462 27.7846C851.048 28.0088 850.404 28.0805 849.859 28.1075C844.186 28.3496 838.392 28.0178 833.253 30.3672C832.598 30.6631 830.996 30.2955 830.119 29.9188C828.144 29.0669 826.239 28.3227 823.811 28.3316C818.077 28.3585 812.343 28.3496 806.61 28.1971C804.987 28.1523 803.264 27.7398 801.823 27.1838C800.654 26.7355 799.788 26.3409 798.84 26.8162C796.412 28.0447 793.671 28.6276 790.759 28.4841C785.015 28.1882 779.443 28.3496 774.263 30.4389C773.195 30.8694 772.086 30.4389 771.109 29.8561C768.65 28.4123 766.061 28.1523 763.39 29.6229C762.937 29.874 762.463 30.2058 761.949 30.2596C760.861 30.3672 759.359 30.6452 758.694 30.2596C755.258 28.3047 751.106 28.7441 747.247 28.2151C745.101 27.9191 742.894 26.7534 740.969 26.9955C738.903 27.2556 736.949 28.3406 734.691 28.7172C733.623 28.8966 732.767 29.7305 731.709 29.8561C730.782 29.9637 729.613 29.6229 728.746 29.2553C726.469 28.2868 724.383 28.6186 722.377 29.5691C720.322 30.5376 718.316 30.8783 716.13 29.7305C715.213 29.2463 714.165 28.5648 713.167 28.5558C705.72 28.4841 698.274 28.511 690.827 28.6276C689.799 28.6455 688.67 29.2015 687.804 29.6857C686.665 30.3313 685.819 30.3493 684.781 29.587C683.592 28.7172 682.352 27.8653 681.002 27.1211C679.581 26.3409 677.586 25.9732 676.205 26.592C673.152 27.955 669.948 28.4751 666.441 28.3944C662.451 31.2101 658.601 30.3224 654.067 28.7441C650.439 27.4797 646.166 27.9281 642.72 29.883C641.723 30.4479 640.594 30.8694 639.546 30.4031C634.951 28.3585 629.872 28.2061 624.733 28.4034C623.08 28.4661 621.246 28.6903 619.876 29.2732C616.127 30.8694 612.58 31.2639 608.671 29.5243C607.29 28.9145 605.496 28.5199 603.864 28.4751C599.289 28.3406 594.704 28.3765 590.119 28.4482C585.061 28.5379 579.679 27.5784 575.427 30.5376C571.437 30.7169 567.386 31.1115 563.849 29.3091C562.72 28.7262 561.934 28.789 560.796 29.4256C558.901 30.4838 556.835 30.8335 554.528 29.8202C553.641 29.4346 552.14 28.9862 551.474 29.2553C549.147 30.1968 547.373 29.5153 545.217 28.9414C541.378 27.9191 537.236 27.8384 533.608 29.3449C529.739 30.959 526.141 30.9501 522.342 29.4256C520.559 28.7083 519.158 29.9726 517.626 29.9995C516.165 30.0264 514.996 28.5737 513.062 29.2553C512.145 29.5781 510.734 30.0713 510.119 29.8202C507.489 28.6993 505.202 28.1613 502.35 29.6588C499.357 31.2281 495.911 31.1653 492.716 29.8292C487.9 27.8115 483.033 27.6681 478.145 29.4974C476.946 29.9457 476.18 30.2327 475.122 29.7305C474.175 29.2822 473.137 28.6993 472.089 28.6365C465.277 28.2061 458.496 27.5605 452.016 30.134C449.517 31.1294 446.454 30.8066 443.894 29.5781C440.75 28.0716 437.405 28.0985 434.18 29.2373C431.59 30.152 429.152 31.0397 426.109 30.8963C422.108 30.7169 418.077 30.8335 414.087 30.6093C412.475 30.5196 410.782 30.0264 409.361 29.4346C406.066 28.0716 402.68 28.0985 399.617 29.3718C394.74 31.4074 389.651 30.6721 384.582 30.3672C383.685 30.3134 382.778 29.4884 382.073 28.8966C381.358 28.2958 380.985 27.4887 380.289 26.87C379.372 26.045 376.581 26.1705 375.866 27.2018C375.362 27.9191 374.918 28.6814 374.223 29.3001C372.601 30.7349 371.301 29.2642 369.93 28.9145C368.328 28.511 366.776 27.9729 365.275 27.3901C363.723 26.7893 362.292 26.5023 360.579 27.1838C358.594 27.9729 356.357 28.4661 354.452 29.327C352.639 30.152 351.228 29.8292 350.119 28.8876C347.57 26.7355 344.9 25.8836 341.504 27.964C339.216 28.0895 336.909 28.0985 334.661 28.3675C333.019 28.5648 331.296 28.9145 329.905 29.5332C328.686 30.0713 328.001 30.1789 326.842 29.5422C323.547 27.7488 318.992 28.5737 315.526 26.9327C314.881 26.6279 313.46 27.0404 312.452 27.2556C311.374 27.4797 310.396 28.0716 309.328 28.1433C307.061 28.2958 304.774 28.224 302.486 28.224C300.199 28.224 297.851 28.1882 296.017 29.3539C293.79 30.7707 291.684 28.6096 290.031 29.1656C287.653 29.9637 286.041 29.7574 283.864 28.9235C281.224 27.9191 278.211 28.1702 275.702 29.2911C273.193 30.412 271.601 29.6498 269.928 28.4572C269.132 27.8833 268.265 27.3452 267.348 26.8789C266.411 26.3947 265.373 26.5561 264.376 27.2197C263.126 28.0447 261.897 28.8966 260.607 29.7036C258.813 30.8335 256.092 30.6541 254.883 29.0131C253.714 27.4259 252.807 26.2781 250.016 27.417C246.842 28.7172 243.285 27.9998 239.909 28.242C237.581 28.4123 235.354 28.7262 233.47 29.7036C232.331 30.2955 231.535 30.2417 230.386 29.6229C228.522 28.6276 226.336 28.2061 223.957 28.2868C219.473 28.4392 214.989 28.6006 210.787 29.8919C209.326 29.4167 208.006 28.4213 206.192 29.4436C203.491 30.977 201.002 30.3762 198.453 29.0938C197.627 28.6814 196.236 28.4482 195.279 28.6186C193.667 28.8966 192.215 29.9099 190.654 29.9637C189.202 30.0085 187.832 28.5289 186.038 29.4077C184.436 30.1879 183.056 29.9816 181.453 29.3718C177.705 27.9281 173.493 27.7129 169.885 29.0311C165.018 30.8156 160 30.7169 154.901 30.7528C153.853 30.7528 152.624 30.4031 151.787 29.9368C149.298 28.5468 146.85 28.0447 144.068 29.4794C142.073 30.5017 140.028 30.8425 137.841 29.6947C135.957 28.6993 133.79 28.1971 131.432 28.2151C125.708 28.2509 119.985 28.242 114.271 28.4213C112.649 28.4751 110.946 28.9862 109.505 29.5691C108.336 30.0444 107.661 29.9009 106.411 29.5512C103.267 28.6724 99.7707 28.3585 96.7476 27.3363C94.1075 26.4395 92.6665 27.0673 90.9736 28.2958C89.4419 29.3987 88.0916 30.2327 85.2701 29.3539C80.141 27.7577 77.6218 27.9191 72.3012 29.596C70.4572 30.1789 69.1069 30.0623 67.7767 29.2911C66.2451 28.4034 64.5219 28.3047 63.0709 28.9593C60.602 30.0623 58.2138 30.9232 55.1404 30.7976C51.6135 30.6452 48.3184 30.3403 45.9201 28.224C44.328 26.8162 42.4738 26.4395 40.0554 27.4528C39.4306 27.7129 38.0199 27.2645 37.113 26.9507C34.4023 26.0002 31.2986 25.5159 28.9306 26.6906C24.9905 28.6365 19.9219 27.8564 16.1229 29.8112C15.2059 30.2865 14.2184 30.0264 13.1301 29.4436C10.6915 28.1254 7.77931 28.2778 4.92757 28.1882C3.29512 28.1344 1.6526 27.9283 0 28V38C3.44627 38.4394 7.05378 37.7114 10.5404 37.801C11.5178 37.8279 12.5154 37.0926 13.5332 36.7519C17.8763 35.3261 17.9871 35.344 20.2746 37.8907C21.9876 39.8007 22.1388 39.8456 23.7813 38.9219C24.2247 38.6709 24.6479 38.3839 25.0208 38.079C28.4469 35.2454 32.9714 35.0571 37.6369 35.6758C40.6801 36.0793 43.4714 38.2673 46.7565 35.9089C47.2301 35.5682 49.1044 35.7744 49.9206 36.169C52.3592 37.3258 54.7877 38.1956 57.8511 37.8279C61.7004 37.3706 65.9327 38.5722 69.4293 36.4111C70.175 35.9538 71.2835 36.438 72.402 36.9133C76.1103 38.4736 80.4332 38.6081 83.9097 37.2899C88.0009 35.7386 91.1953 35.7475 94.8028 37.6127C96.1531 38.3122 97.9871 38.5094 99.4482 39.1192C100.647 39.6214 101.524 39.6931 102.572 39.0834C104.325 38.0521 106.149 37.0837 107.943 36.0883C109.465 36.6084 110.926 37.3078 112.528 37.6217C116.478 38.3929 120.519 38.097 124.479 37.6396C126.071 37.4513 127.835 36.2228 128.993 36.5098C130.273 36.8326 130.767 38.4736 131.946 39.3075C132.611 39.7828 134.274 40.1774 134.949 39.9173C136.904 39.1551 138.697 38.1239 140.36 37.0568C142.718 35.5413 145.459 35.084 148.291 35.8103C150.931 36.4829 153.309 37.8369 156.11 36.1869C160.695 39.2448 167.527 36.5815 172.243 39.3434C173.2 39.9083 174.218 39.72 175.327 39.1461C177.211 38.1687 179.418 37.8638 181.736 37.6486C183.852 37.4513 185.847 36.6712 187.963 36.447C188.88 36.3483 190.331 37.4782 190.895 37.254C193.032 36.3932 194.795 35.9807 196.992 37.2182C198.423 38.0252 200.317 37.8369 201.738 37.0747C203.995 35.8551 205.799 36.5636 207.855 37.3347C208.731 37.6665 210.082 37.5589 211.15 37.4244C216.198 36.7608 216.218 36.707 218.415 37.9535C219.302 38.4556 220.138 39.0116 221.055 39.4869C222.466 40.2132 224.874 40.1146 225.57 39.0475C227.172 36.5456 229.56 35.4068 233.53 35.4965C238.68 35.622 243.839 35.3709 248.988 35.4785C250.601 35.5144 252.394 35.9628 253.755 36.5905C256.526 37.8728 259.035 37.7831 261.635 36.4918C263.761 35.4337 265.827 35.5772 267.902 36.5994C269.293 37.2899 270.684 37.9624 272.548 37.9266C277.697 37.8279 282.857 37.7472 288.006 37.7652C289.87 37.7652 291.311 37.1823 292.782 36.5815C293.84 36.1511 294.646 36.3752 295.835 36.8146C299.04 38.0163 302.436 38.2046 305.64 36.8326C308.532 35.5951 312.019 38.3032 314.669 36.0435C315.677 36.429 316.644 36.8864 317.702 37.1913C319.304 37.6486 320.937 37.8728 322.539 37.0568C326.136 35.2185 329.804 34.9584 333.634 36.8057C334.541 37.2451 335.689 37.5858 336.768 37.6665C345.343 38.2584 353.918 38.1687 362.443 37.272C363.965 37.1106 365.446 35.5503 366.927 36.2228C373.86 39.4062 381.428 37.3078 388.673 37.7293C389.661 37.7831 390.83 37.2271 391.727 36.7698C392.845 36.2049 393.833 35.9448 394.729 36.4559C397.329 37.9355 399.869 37.8279 402.509 36.5187C404.534 35.5234 406.801 35.1736 408.736 36.4559C411.931 38.5722 416.626 37.4154 419.922 39.2089C420.919 39.7469 421.937 39.5317 423.045 38.9937C426.401 37.3437 430.946 38.2046 434.281 36.3035C436.327 35.1378 438.574 35.7475 440.559 36.6981C443.733 38.2135 446.998 38.3211 450.172 36.8236C451.885 36.0166 453.266 36.3663 454.747 36.994C458.093 38.4018 461.287 38.1239 464.31 36.5008C465.781 35.7117 467.897 35.2095 469.066 35.8282C473.117 37.9804 477.591 37.8459 482.216 37.7741C487.376 37.6934 492.545 37.6934 497.694 37.9086C501.292 38.0611 504.365 37.6038 507.358 36.1062C508.658 35.4516 510.573 35.8103 512.074 36.6353C514.603 38.0252 517.092 38.0432 519.803 36.6353C522.866 35.0391 526.061 35.3978 529.406 36.5994C533.81 38.1866 538.566 38.5184 542.395 36.994C545.65 35.6937 548.905 35.335 552.25 35.7296C555.515 36.1152 558.579 37.2899 561.823 37.801C564.544 38.2315 567.527 37.4154 570.167 38.6529C571.003 39.0475 572.424 39.5317 573.039 39.2896C573.865 38.9668 574.228 37.9983 574.702 37.2809C575.357 36.2766 576.122 36.1331 577.332 36.6443C581.04 38.2135 584.839 38.6171 588.557 36.6712C589.656 36.0973 590.452 36.178 591.59 36.8146C592.447 37.2809 593.636 37.6845 594.694 37.7024C601.002 37.7921 607.31 37.7293 613.608 37.7921C620.481 37.8548 627.343 37.9983 634.215 38.097C636.533 39.0565 638.74 40.6347 640.312 37.3258C641.118 35.622 643.567 35.335 645.884 36.5277C648.625 37.9445 651.154 37.8728 653.734 36.6801C654.943 36.1242 655.77 36.0076 656.818 36.7429C657.201 37.0119 657.795 37.1913 658.339 37.2809C663.761 38.2046 668.668 38.4646 673.364 37.0926C675.893 36.3573 677.374 36.7429 679.43 37.4782C680.921 38.0073 682.705 37.7921 684.156 36.9043C686.665 35.3709 689.245 35.4516 691.855 36.8415C693.709 37.8279 694.938 36.5725 696.399 36.16C700.299 38.3391 704.965 37.8907 709.449 38.079C712.522 40.0249 715.596 39.3972 718.679 38.097C723.254 38.348 727.517 37.4334 731.759 36.4201C733.23 36.9492 734.671 37.7114 736.324 36.6801C738.218 35.4965 739.347 36.9581 740.798 37.3258C744.738 38.3122 748.617 37.9983 752.467 37.0478C753.485 36.7967 754.845 36.1152 755.48 36.3663C762.503 39.0744 770.142 37.2989 777.407 38.0432C778.485 38.1508 779.563 38.5633 780.511 38.9847C782.183 39.729 783.645 39.5586 785.055 38.7067C785.922 38.1777 786.748 37.6127 787.625 37.0926C789.479 35.9807 791.424 35.4247 793.772 36.447C797.964 38.2673 802.508 38.3391 806.892 37.1375C809.099 36.5277 810.792 35.8103 812.998 37.0478C813.472 37.3168 815.014 36.8684 815.87 36.5187C819.186 35.1557 822.38 35.1826 825.453 36.7788C827.428 37.801 829.595 38.1687 831.892 37.7831C834.019 37.4244 836.054 36.5008 838.16 36.438C839.652 36.3932 841.133 37.5679 842.735 37.8369C844.367 38.1149 846.161 37.8728 847.874 37.9894C850.807 38.1866 853.104 35.8282 855.694 36.5725C858.253 37.3168 859.805 36.8326 861.821 36.0345C862.657 35.7027 864.007 35.9269 865.096 36.0345C865.609 36.0793 866.103 36.4111 866.537 36.6801C868.048 37.5948 869.449 37.3616 871.001 36.6712C871.907 36.2676 873.157 35.8372 874.094 35.9717C875.706 36.1869 877.147 37.0747 878.76 37.2361C880.241 37.3885 881.632 35.891 883.254 36.5277C885.279 37.3168 887.194 38.1059 889.612 38.0432C893.623 37.9355 897.634 37.7921 901.644 37.81C903.317 37.81 905.373 37.8369 906.592 38.4736C909.635 40.0608 911.721 39.2537 913.847 37.6665C914.24 37.3796 914.774 37.1823 915.167 36.8953C916.165 36.1421 917.072 36.1152 918.15 36.6443C919.077 37.1016 920.196 37.7652 921.163 37.7203C922.905 38.1333 921.322 38.5201 925 38V28H920.286Z" fill="#546CB2"/>
<path d="M925.37 2.97433C920.72 3.27302 916.09 3.05673 911.69 1.42942C910.47 0.976243 909.68 0.698158 908.63 1.33672C906.74 2.47996 904.56 2.85074 902.22 2.85074C896.53 2.85074 890.84 3.05673 885.16 2.90224C879.61 2.74775 873.83 3.6232 868.66 1.01744C868.44 0.904147 867.7 1.42942 867.23 1.6869C865.14 2.84044 863.07 2.84044 860.96 1.6869C859.42 0.84235 857.78 0.935045 856.28 1.7487C854.04 2.97433 851.95 2.43876 850 1.38822C848.68 0.66726 848.07 0.832051 847.23 1.89289C844.25 5.66249 843.89 6.03326 841.12 4.64284C837.12 2.63445 832.13 3.4893 828.33 1.15133C827.75 0.790853 826.86 1.8002 826.29 2.77864C825.87 3.4996 824.99 4.03517 824.32 4.65314C819.93 1.35732 814.41 3.6438 809.57 2.64475C807.97 2.31517 806.44 1.62511 805 0.924746C803.35 0.12139 801.82 0.265582 800.23 0.893847C798.72 1.50151 797.24 2.64475 795.73 2.66535C790.65 2.72715 785.53 3.17002 780.46 2.39756C777.9 0.646661 775.65 1.57361 772.84 2.33577C769.76 3.15972 766.13 2.60355 762.74 2.72715C758.79 2.87134 754.69 2.50056 751.09 4.23086C749.88 4.81793 749.11 4.97242 748.05 4.28236C746.2 3.05673 743.95 2.93314 741.65 2.78894C738.3 2.56236 734.7 3.5099 731.63 1.94439C729.34 0.780553 727.59 1.12043 725.54 2.23277C723.55 3.30391 720.98 3.5511 719.06 2.57265C716.39 1.20283 714.13 0.801152 711.62 2.52116C705.95 2.64475 700.27 2.66535 694.61 2.91254C689.07 3.15972 683.19 1.52211 678.1 4.71494C677.83 4.87973 676.98 4.73554 676.66 4.49865C673.46 2.16068 668.66 3.92188 665.53 1.59421C664.46 0.790853 663.68 0.646661 662.56 1.31612C660.68 2.41816 658.54 3.00523 656.19 2.97433C653.35 2.93314 650.5 2.79924 647.66 2.86104C642.63 2.96403 637.43 4.05577 633.07 0.904147C629.74 3.84978 626.93 0.275881 623.8 0.378875C621.48 0.450972 619.27 0.492169 617.41 1.7899C616.55 2.39756 615.81 3.14942 614.87 3.6438C614.04 4.08667 612.6 4.75613 612.12 4.48835C606.85 1.55301 600.97 3.5614 595.44 2.94343C593.01 2.66535 591.19 4.30296 589.14 4.52955C587.17 4.74584 585 3.4996 582.86 3.05673C580.54 2.58295 578.39 3.03613 576.48 4.26176C574.42 5.58009 572.4 5.3947 570.31 4.22056C568.92 3.43781 567.44 2.83014 565.59 3.00523C563.23 3.22152 561.09 2.62415 559.29 1.36762C558.28 0.66726 557.42 0.718757 556.36 1.54271C555.04 2.56236 553 3.15972 551.71 2.49026C549 1.08954 546.87 1.09984 544.08 2.38726C542.17 3.26272 539.53 3.09793 537.56 2.03708C534.56 0.430373 531.44 -0.228791 527.89 0.0698925C525.06 0.306779 522.21 0.327378 519.37 0.48187C516.27 0.646661 513.31 3.25242 510.07 0.832051C508.06 1.99589 506.14 2.11948 503.92 0.955644C502.48 0.203785 500.68 0.317079 499.17 1.27493C497.31 2.43876 495.23 2.96403 492.84 2.87134C489.43 2.73745 486.12 2.81984 483.17 4.71494C481.3 5.91997 478.85 5.51829 476.6 5.3329C473.02 2.69625 467.98 3.18032 464.03 1.41912C462.07 0.543666 460.8 1.52211 459.34 2.06798C457.16 2.88164 454.69 3.17002 452.77 2.28427C449.99 0.996841 447.64 0.729056 445.1 2.36667C438.87 2.55206 432.64 2.92284 426.42 2.87134C422.53 2.84044 418.36 3.25242 415.02 0.883548C413.51 1.20283 412 1.52211 410.48 1.8414C407.27 -0.208192 404.51 0.749655 401.16 2.06798C396.99 3.71589 392.39 3.5305 388.26 1.20283C387.38 0.708457 386.2 0.29648 385.16 0.306779C380.11 0.368576 375.1 -0.136096 370.21 2.04738C366.75 3.5923 362.55 3.6026 358.82 1.65601C357.87 1.16163 356.76 0.595164 355.71 0.574565C348.32 0.430373 340.92 0.409774 333.53 0.389175C333.01 0.389175 332.41 0.65696 331.99 0.935045C328.58 3.24212 324.51 2.84044 320.56 2.75804C317.2 2.68595 313.68 3.22152 310.61 1.60451C308.38 0.430373 307.98 1.88259 307.12 2.98463C305.65 4.87973 305.06 4.99302 303.41 3.99398C302.5 3.43781 301.63 2.84044 300.79 2.22247C299.49 1.26463 298.29 0.729056 296.44 1.57361C291.05 4.03517 285.37 3.5408 280.14 1.53241C276.13 -0.00220351 272.64 -0.300887 268.95 1.6869C266.4 3.06703 263.47 2.73745 260.68 2.75804C257.81 2.77864 254.94 2.65505 252.5 4.07637C251.35 4.74584 250.51 4.95182 249.51 4.28236C246.59 2.32547 243.08 2.60355 239.72 2.77864C235.09 3.02583 230.68 2.91254 226.61 0.729056C225.85 0.317079 224.05 0.317079 223.44 0.770254C219.72 3.5202 216.48 2.34607 212.74 0.65696C210.25 -0.465678 207.16 0.0183953 204.72 1.52211C203.6 2.21217 202.75 2.34607 201.72 1.759C200.32 0.955644 198.78 0.430373 197.99 2.26367C197.39 3.6438 196.51 4.82823 194.79 5.16811C192.58 5.60069 190.27 5.70368 188.3 4.41625C186.53 3.26272 184.9 1.94439 183.02 0.935045C182.19 0.492169 180.57 0.255282 179.84 0.615763C176.36 2.36667 172.87 3.07733 168.64 2.90224C161.28 2.58295 153.87 3.03613 146.48 3.09793C142.48 3.12882 138.68 2.65505 135.02 1.00714C131.88 -0.414181 128.4 -0.0742996 125.39 1.7075C123.21 2.99493 121.16 2.66535 119.16 1.54271C117.13 0.409774 115.17 0.00809591 112.95 1.24403C108.82 3.5408 104.24 3.41721 100.01 1.89289C97.6 1.02774 96.18 1.39852 93.95 2.08858C89.49 3.46871 83.37 3.12882 79.03 1.99589C78.5 1.86199 77.98 1.60451 77.54 1.32642C76.02 0.347977 74.27 0.337678 72.76 0.986542C70.2 2.08858 67.62 2.88164 64.69 2.85074C56.25 2.74775 47.68 4.03517 39.47 1.20283C38.67 0.924745 37.92 1.85169 37.34 2.81984C36.85 3.6232 36.19 4.57074 35.29 4.93122C34.41 5.28141 33.04 5.17841 32.06 4.87973C29.94 4.24116 27.8 3.5305 25.92 2.53146C23.38 1.18223 20.95 0.677559 18.23 2.00619C16.19 0.626062 14.4 0.935045 12.22 2.09888C9.68 3.44811 6.73 3.15972 4.19 1.88259C2.78 1.18223 1.41 1.12264 0 1.02994V11.3294C2.95 11.3294 5.9 11.0697 8.84 11.1212C9.91 11.1418 11.18 11.4302 12 11.9657C14.2 13.3665 15.82 12.3674 18.01 11.7906C23.46 10.359 29.22 11.1933 34.86 11.3169C35.36 11.3272 35.82 11.8009 36.33 11.9863C37.85 12.5631 39.35 13.4901 40.93 13.6033C44.89 13.8814 48.89 13.902 52.86 13.7681C54.48 13.7063 56.32 13.2532 57.62 12.4807C61.44 10.2148 64.97 10.6268 68.62 12.6455C69.56 13.1708 70.59 12.8515 71.57 12.0893C72.96 11.0079 74.8 10.9667 76.29 11.5435C78.25 12.2953 79.63 13.3974 82.22 12.2335C86.38 10.3487 90.88 10.7916 95.15 12.4395C95.66 12.6352 96.09 12.9854 96.62 13.1502C98.28 13.6651 99.89 13.593 101.41 12.7485C103.31 11.6877 105.44 10.6165 107.63 11.7186C109.83 12.8206 111.7 13.0884 113.78 11.7906C116.3 13.0987 118.81 12.6661 121.38 11.8627C121.72 11.7598 122.38 12.2438 122.85 12.5013C124.94 13.6342 126.99 13.7269 129.08 12.4807C130.47 11.6465 132.19 10.8431 133.76 11.5126C136.39 12.6352 138.77 13.4489 141.28 11.492C146.93 11.2551 152.58 10.9049 158.24 10.8534C159.81 10.8431 161.62 11.4611 162.93 12.2232C165.6 13.7681 168 13.8814 170.65 12.2953C171.52 11.77 172.69 11.2242 173.68 11.286C178.67 11.5538 183.93 10.05 188.61 12.7897C189.08 13.0678 190.57 12.4395 191.39 11.9966C193.61 10.7607 195.66 11.0491 197.57 12.3159C198.63 13.0163 199.59 13.4283 200.47 12.8721C203.37 11.0697 206.78 10.8019 210.18 10.7813C214.73 10.7607 219.27 11.08 223.82 11.1109C226.28 11.1212 228 12.8515 230.02 12.9751C232.02 13.0884 234.09 11.6877 236.21 11.2345C238.51 10.7401 240.72 11.2963 242.61 12.4704C243.66 13.1193 244.59 13.1605 245.62 12.3468C246.65 11.5435 247.63 11.5332 248.66 12.2438C249.09 12.5425 249.71 12.9854 250.12 12.903C252.69 12.4395 255.2 11.595 257.79 12.9339C258.05 13.0678 258.8 12.6146 259.3 12.388C262.49 10.9564 265.76 10.6474 268.95 12.2335C271.51 13.5107 274.23 13.7681 277.11 13.7887C279.47 13.799 281.6 13.3768 283.39 12.079C284.84 11.0285 286.84 10.8122 288.08 11.5538C292.72 14.3243 297.63 14.4994 302.56 12.697C304.98 11.8112 306.56 12.1099 308.64 13.1296C311.24 14.4067 314.07 14.2831 316.57 12.7279C318.94 11.2551 321.51 10.565 324.51 10.8843C328.4 11.3066 332.41 10.9873 335.99 12.9236C337.92 13.9638 340.61 13.9329 342.55 13.0884C345.36 11.8627 347.6 11.873 350.19 13.3562C350.88 13.7475 352.56 13.5107 353.41 13.0781C355.49 12.0275 357.21 11.9554 359.59 12.7485C361.24 13.3047 363.27 11.1521 365.62 12.5013C367.95 13.8505 369.56 11.3993 371.72 11.2654C373.96 11.1315 376.31 11.2654 378.26 10.0809C379.75 9.18489 381.22 8.9995 382.58 10.1942C385.03 12.3365 387.51 14.0565 390.99 11.3581C391.28 11.1315 392.13 11.2448 392.64 11.389C393.68 11.6774 394.79 11.9554 395.66 12.4704C398.36 14.0462 400.88 13.8814 403.34 12.182C404.74 11.2139 406.46 11.1006 408.14 11.0594C412.12 10.9461 416.12 11.1006 420.08 10.8122C421.65 10.6989 423.11 9.24669 424.64 9.21579C426.15 9.17459 427.64 10.3281 429.23 10.6577C430.86 10.9976 432.59 11.0594 434.28 11.08C435.98 11.1006 437.69 10.9358 439.39 10.8122C442.35 10.5959 445.04 11.2448 447.43 12.594C449.69 13.8711 451.23 10.6989 453.53 12.0893C454.3 12.5528 455.81 12.9854 456.47 12.6764C459.12 11.4611 461.65 10.7916 464.28 12.5013C465.41 13.2326 466.31 13.2738 467.34 12.4601C467.74 12.1511 468.29 11.8833 468.82 11.7803C473.92 10.7813 479.4 10.4311 483.72 11.9451C486.21 12.8206 487.61 12.4395 489.64 11.5641C491.08 10.9358 492.9 11.1418 494.39 12.0996C495.89 13.0678 497.45 12.8206 498.98 12.0481C501.58 10.7298 504.42 10.5032 507.03 11.698C509.09 12.6455 510.77 13.4489 513.08 12.1408C513.62 11.8421 515.05 12.4704 516.01 12.8C520.47 14.3037 525.04 14.3861 529.09 12.3262C532.6 10.5341 537.08 11.7598 540.28 9.40118C541.01 8.86561 542.18 9.32908 543.13 10.0912C543.94 10.7401 544.82 11.3375 545.65 11.976C547.96 13.7475 550.77 14.0256 553.59 13.3562C556.19 12.7279 558.53 11.183 561.38 12.9957C561.79 13.2532 563.34 12.388 564.32 11.9657C565.88 11.286 567.64 10.8122 569.03 11.7803C572.27 14.0462 575.09 13.3562 578.17 11.5744C580.16 10.4208 582.9 10.4002 584.64 11.4405C589.22 14.1801 594.26 14.005 599.38 13.6754C600.99 13.5724 602.62 12.9751 604.11 12.3777C609.02 10.4311 613.82 10.0397 618.58 12.6352C619.55 13.1605 620.52 12.9751 621.64 12.3674C624.75 10.6886 627.98 10.4105 631.13 12.2541C632.72 13.1914 634.06 13.0369 635.6 12.2335C639.88 10.0191 644.22 10.3075 648.45 12.3056C649.59 12.8412 650.49 13.0987 651.55 12.6249C657.44 9.95735 663.76 11.3478 669.93 11.4199C670.94 11.4302 671.96 12.1923 672.93 12.6558C675.1 13.696 677.2 13.6548 679.21 12.3983C681.86 10.7298 684.42 11.0182 686.9 12.6146C688.38 13.5622 690.21 13.8711 691.59 13.0781C695.74 10.668 699.79 10.1736 704.12 12.6455C705.02 13.1605 706.03 12.9236 707.06 12.1923C708.5 11.1624 710.38 11.0594 711.8 11.7186C713.96 12.7176 715.62 12.7279 717.99 11.9142C722.27 10.4517 726.83 10.4517 730.97 12.5322C733.18 13.6445 735.31 13.6445 737.29 12.5528C740.05 11.0388 742.49 11.1933 744.99 12.8515C745.88 13.4386 746.81 13.109 747.89 12.3983C749.84 11.1006 751.96 10.977 754.03 12.3056C756.65 13.9844 759.2 13.7269 761.74 12.1717C763.61 11.0285 764.77 12.5734 766.24 12.9854C770.75 10.2148 775.97 11.2242 780.97 11.2139C786.09 11.2139 791.21 11.2654 796.32 11.4611C797.33 11.5023 798.36 12.2335 799.28 12.7691C800.81 13.6651 802.58 13.8299 804.07 13.212C806.11 12.3674 807.86 11.4199 810.07 12.903C810.86 13.4386 811.97 13.0266 813.01 12.3468C815.02 11.0491 817.15 10.9976 819.18 12.2644C820.26 12.9442 821.19 13.212 822.15 12.6867C825.81 10.6783 829.46 10.5444 833.25 12.5219C834.15 12.9854 835.4 13.3871 836.39 13.2635C838.02 13.0678 839.55 12.1511 841.17 12.0687C842.65 11.9966 844.59 13.2635 845.61 12.8309C848.21 11.7186 850.93 11.4817 853.66 10.9564C856.76 10.359 859.25 8.75232 862.91 10.5547C866.14 12.1511 870.71 10.4208 874.3 12.5837C877.19 14.3243 880.93 13.2841 884.26 13.7166C886.56 14.0153 889.01 13.8505 890.77 12.6455C893.36 10.874 895.87 14.1389 898.44 12.3365C900.76 10.7195 903.77 11.1006 906.61 11.1418C908.33 11.1624 910.03 11.2345 911.39 12.182C912.41 12.8927 913.35 13.1811 914.35 12.7691C917.94 11.2654 921.65 10.8946 925.39 10.9152V2.97433H925.37Z" fill="#EC1B41"/>
</svg>
