<svg width="863" height="12" viewBox="0 0 863 12" fill="none" xmlns="http://www.w3.org/2000/svg">
<path d="M100.947 10.7269C82.6536 12.5839 4.56073e-08 11.4783 4.56073e-08 11.4783L1.04907e-06 -4.49283e-05L863 0.698957L863 11.4331C854.431 11.3365 846.105 11.2744 837.535 10.5445C822.099 9.21343 804.17 8.91288 788.733 10.319C775.485 11.532 764.606 11.854 752.208 10.4157C735.677 11.8004 720.909 11.2744 705.472 9.86821C694.046 8.82699 681.041 8.08634 668.156 7.42082C662.201 7.10953 653.874 7.00218 648.526 7.36714C643.057 7.74284 639.045 8.73038 636.067 9.56764C632.543 10.5767 627.984 11.5427 623.122 11.2529C573.226 8.30101 521.143 9.64277 469.849 9.53543C452.042 9.50322 436.362 10.3298 420.804 11.4783C411.627 12.1546 400.991 12.1438 391.753 11.1241C389.079 10.8343 385.919 10.5659 382.698 10.4264C356.322 9.2456 319.128 8.89137 292.022 10.3297C278.469 11.0489 269.839 11.4354 255.193 10.5337C229.485 8.94503 201.65 8.81622 176.55 11.2099C163.058 12.498 151.147 12.0794 138.809 10.8986C126.654 9.72861 114.196 9.38512 100.947 10.7269Z" fill="#F8F7F3"/>
</svg>
