<svg width="863" height="12" viewBox="0 0 863 12" fill="none" xmlns="http://www.w3.org/2000/svg">
<path d="M762.053 1.27308C780.346 -0.583931 863 0.521687 863 0.521687V12L0 11.3011V0.56692C8.56923 0.663528 16.8954 0.725636 25.4646 1.45556C40.9013 2.78659 58.8299 3.08715 74.2666 1.68098C87.5155 0.468016 98.3941 0.145992 110.792 1.58437C127.323 0.199663 142.091 0.725636 157.528 2.13181C168.954 3.17302 181.959 3.91368 194.844 4.5792C200.799 4.89049 209.126 4.99783 214.474 4.63287C219.943 4.25717 223.955 3.26963 226.933 2.43237C230.457 1.42336 235.016 0.457282 239.878 0.747104C289.774 3.699 341.857 2.35723 393.151 2.46457C410.958 2.49677 426.638 1.67024 442.196 0.521687C451.373 -0.154565 462.009 -0.14383 471.247 0.875914C473.921 1.16574 477.081 1.43409 480.302 1.57363C506.678 2.75439 543.872 3.10862 570.978 1.67024C584.531 0.951053 593.161 0.564624 607.807 1.46629C633.515 3.05495 661.35 3.18376 686.45 0.790041C699.942 -0.498057 711.853 -0.0794255 724.191 1.10133C736.346 2.27135 748.804 2.61485 762.053 1.27308Z" fill="#F8F7F3"/>
</svg>
